<svg width="150" height="32" viewBox="0 0 150 32" fill="none" xmlns="http://www.w3.org/2000/svg">
  <!-- kguardian mark: indigo hexagon + white padlock (matches the UI logo) -->
  <polygon points="16,1.6 28.5,8.8 28.5,23.2 16,30.4 3.5,23.2 3.5,8.8" fill="#4e3ad9" stroke="#4e3ad9" stroke-width="2.6" stroke-linejoin="round"/>
  <path d="M11.5 14.9 V12.3 a4.5 4.5 0 0 1 9 0 v2.6" stroke="#ffffff" stroke-width="2.8" stroke-linecap="round" fill="none"/>
  <path d="M9.6 17.2 q0 -2.1 2.1 -2.1 h8.6 q2.1 0 2.1 2.1 v4.1 q0 1.7 -1.3 2.8 l-3.9 3 q-1.2 0.9 -2.4 0 l-3.9 -3 q-1.3 -1.1 -1.3 -2.8 z" fill="#ffffff"/>
  <circle cx="16" cy="19.9" r="1.5" fill="#4e3ad9"/>
  <rect x="15.4" y="20.7" width="1.2" height="2.8" rx="0.6" fill="#4e3ad9"/>
  <text x="38" y="21.5" font-family="Arial, sans-serif" font-size="18" font-weight="600" fill="#09090B">kguardian</text>
</svg>
