<svg width="24" height="24" viewBox="0 0 24 24" fill="none" xmlns="http://www.w3.org/2000/svg">
  <polygon points="12,1.2 21.4,6.6 21.4,17.4 12,22.8 2.6,17.4 2.6,6.6"
           fill="#4e3ad9" stroke="#4e3ad9" stroke-width="2" stroke-linejoin="round"/>
  <path d="M8.6 11.2 V9.2 a3.4 3.4 0 0 1 6.8 0 v2"
        stroke="#ffffff" stroke-width="2.1" stroke-linecap="round" fill="none"/>
  <path d="M7.2 12.9 q0 -1.6 1.6 -1.6 h6.4 q1.6 0 1.6 1.6 v3.1 q0 1.3 -1 2.1 l-2.9 2.2 q-0.9 0.7 -1.8 0 l-2.9 -2.2 q-1 -0.8 -1 -2.1 z"
        fill="#ffffff"/>
  <circle cx="12" cy="14.9" r="1.15" fill="#4e3ad9"/>
  <rect x="11.55" y="15.5" width="0.9" height="2.1" rx="0.45" fill="#4e3ad9"/>
</svg>
